<?xml version="1.0" encoding="utf-8"?>
<!-- Generator: Adobe Illustrator 27.4.1, SVG Export Plug-In . SVG Version: 6.00 Build 0)  -->
<svg version="1.1" id="Layer_1" xmlns="http://www.w3.org/2000/svg" xmlns:xlink="http://www.w3.org/1999/xlink" x="0px" y="0px"
	 viewBox="0 0 147.5 151" style="enable-background:new 0 0 147.5 151;" xml:space="preserve">
<style type="text/css">
	.st0{fill:#EFEFD9;}
	.st1{fill:#E3D2BB;}
	.st2{opacity:0.58;fill:#FFFFFF;}
	.st3{fill:#E8E5CD;}
</style>
<g>
	<g>
		<path class="st0" d="M68.83,135.28c-17.96,0.97-32.27,12.66-48.42,9.4c-7.31-1.48-8.48-4.7-8.69-5.37
			c-1.34-4.29,3.67-9.43,2.48-10.74c-1.26-1.39-7.08,4.12-8.69,2.68c-2.21-1.97,7.88-13.04,4.97-22.82
			c-2.01-6.73-8.12-5.96-9.93-12.08c-3.35-11.32,13.76-26.78,12.41-28.19c-0.92-0.96-8.29,6.78-9.93,5.37
			c-2.22-1.91,7.78-19,6.21-20.14c-0.9-0.65-4.25,4.88-6.21,4.03c-2.3-1-3.21-11.12,1.24-17.45c6.4-9.1,18.64-2.94,26.07-12.08
			c4.98-6.13,1.3-11.13,4.97-17.45c11.18-19.31,64.69-5.95,64.55-2.68c-0.04,0.97-4.78,0.93-4.97,2.68
			c-0.37,3.59,19.02,7.89,18.62,10.74c-0.26,1.85-8.62,1.53-8.69,2.68c-0.08,1.39,12.01,0.83,22.35,6.71
			c15.26,8.68,22.14,28.81,19.86,30.88c-1.76,1.59-9.7-6.91-11.17-5.37c-2.19,2.28,13.94,22.39,11.17,25.51
			c-1.67,1.87-8.98-4.85-11.17-2.68c-2.88,2.83,8.36,15.64,6.21,32.22c-0.4,3.11-0.95,6.94-3.72,9.4
			c-4.88,4.33-11.05-0.85-16.14,2.68c-6.92,4.8-1.99,15.99-7.45,21.48C106.98,152.51,92.71,133.99,68.83,135.28z"/>
		<path class="st1" d="M34.48,105.34c5.13-2.73,4.84-22.16-2.48-25.51c-2.48-1.14-5.55-0.32-7.45,1.34
			c-4.64,4.07-3.75,14.51,1.24,20.14C27.52,103.26,31.69,106.83,34.48,105.34z"/>
		<path class="st1" d="M104.84,105.75c-5.13-2.73-4.84-22.16,2.48-25.51c2.48-1.14,5.55-0.32,7.45,1.34
			c4.64,4.07,3.75,14.51-1.24,20.14C111.8,103.67,107.63,107.23,104.84,105.75z"/>
		<path class="st1" d="M32.83,97.69c1.5,12.29,4.79,20.34,7.45,25.51c3.48,6.77,7.88,15.33,17.38,20.14
			c1.6,0.81,10.37,5.07,19.86,2.68c20.56-5.16,27.9-37.34,29.79-45.64c3.67-16.1,9.71-42.61-6.21-59.07
			c-15.72-16.25-44.95-14.55-59.59,1.34C27.9,57.44,30.72,80.41,32.83,97.69z"/>
		<path class="st0" d="M109.8,57.42c-3.75,4.39-21.25-17.94-39.73-14.77C45.19,46.93,37.4,94.21,31.59,92.32
			c-4.96-1.61-7.13-38.65,13.66-56.38c10.33-8.82,22.18-9.31,25.45-9.4c4.09-0.11,20.46,0.07,31.66,13.42
			C106.96,45.46,112.04,54.8,109.8,57.42z"/>
		<path class="st2" d="M115.84,76.37c0.05-0.95,0.24-1.28,0-1.65c-0.37-0.57-1.28-0.56-1.58-0.55c-2.29,0.03-4.57-0.7-6.85-0.55
			c-4.66,0.31-3.52-0.28-10.54,0c-2.28,0.09-4.69,0.19-7.91,0.55c-1.72,0.19-3.37,0.43-10.01,1.65c-8.79,1.62-8.26,1.64-8.96,1.65
			c-4.67,0.11-5.28-1.35-13.18-2.76c-4.41-0.79-7.92-0.99-10.01-1.1c-5.2-0.28-4.08,0.23-10.54,0c-2.99-0.11-5.98,0.82-8.96,0.55
			c-0.36-0.03-1.65-0.16-2.11,0.55c-0.29,0.45,0.01,0.83,0,2.21c-0.01,1.37-0.33,1.92,0,2.21c0.33,0.29,0.79-0.14,1.58,0
			c0,0,0.77,0.14,1.58,1.1c1.69,2.01,0.39,12.49,3.69,17.65c2.93,4.58,9.6,5.16,13.7,5.52c5.39,0.47,9.12-0.77,10.01-1.1
			c2.32-0.87,4.04-1.51,5.63-3.26c2.46-2.7,1.72-4.9,4.97-10.74c1.6-2.88,2.56-3.76,3.72-4.03c1.28-0.3,3.01,0.11,4.13,1.48
			c0.87,1.07,1.02,2.29,1.05,2.76c0,0,0.56,2.33,2.64,6.62c2.58,5.33,8.38,7.51,8.96,7.72c2.85,1.03,5.1,0.85,8.96,0.55
			c5.26-0.41,8.09-0.63,10.54-2.76c3.87-3.36,4.58-9.58,4.74-11.03c0.22-1.97,0.68-8.51,2.11-9.38c0.59-0.36,1.05-0.55,1.05-0.55
			c1.04-0.43,1.3-0.23,1.58-0.55C116.26,78.65,115.74,78.09,115.84,76.37z M62.61,89.06c-0.85,3.29-1.86,7.24-5.27,9.93
			c-2.39,1.88-4.9,2.32-7.38,2.76c-3.46,0.61-6.19,0.22-7.38,0c-2.47-0.45-4.74-0.86-6.85-2.76c-1.89-1.69-2.67-3.69-3.16-4.96
			c-1.15-2.96-1.11-5.5-1.05-7.72c0.11-3.97,0.18-6.83,2.11-8.82c1.4-1.45,3.08-1.73,6.33-2.21c4.59-0.68,8.28-0.25,10.01,0
			c7.25,1.04,11.5,1.66,13.18,4.96C64.29,82.51,63.65,84.98,62.61,89.06z M108.94,93.97c-0.5,1.27-1.27,3.27-3.16,4.96
			c-2.11,1.89-4.38,2.31-6.85,2.76c-1.19,0.22-3.92,0.61-7.38,0c-2.48-0.44-4.99-0.88-7.38-2.76c-3.41-2.69-4.43-6.64-5.27-9.93
			c-1.05-4.08-1.68-6.54-0.53-8.82c1.67-3.31,5.93-3.92,13.18-4.96c1.74-0.25,5.42-0.68,10.01,0c3.24,0.48,4.92,0.75,6.33,2.21
			c1.93,2,2,4.86,2.11,8.82C110.05,88.48,110.09,91.01,108.94,93.97z"/>
	</g>
	<path class="st3" d="M61.86,74.05c-1.51,0.34-6.81-4.82-13.52-6.05c-9.03-1.66-13.77,5.07-15.75,4.23c-1.7-0.72-0.93-6.76,7.2-7.61
		c4.04-0.42,8.28,0.61,9.44,0.9c1.46,0.37,7.27,1.93,10.7,5.08C61.35,71.9,62.77,73.85,61.86,74.05z"/>
	<path class="st3" d="M77.41,68.36c1.51,0.34,6.81-4.82,13.52-6.05c9.03-1.66,13.77,5.07,15.75,4.23c1.7-0.72,0.93-6.76-7.2-7.61
		c-4.04-0.42-8.28,0.61-9.44,0.9c-1.46,0.37-7.27,1.93-10.7,5.08C77.92,66.21,76.51,68.16,77.41,68.36z"/>
</g>
<path class="st0" d="M76,146.2c-0.09,0.31-1.38,4.64-4,4.8c-2.2,0.13-4.25-2.74-5-4.8c-1.81-4.96,1.71-11.2,4.5-11.2
	C74.27,135.01,77.44,141.17,76,146.2z"/>
<path class="st0" d="M71,123c-5.78,0.51-6.32,2.23-11,2c-5.01-0.24-9.13-2.45-9-3c0.11-0.48,3.31,0.96,8,0c4.35-0.89,6.32-3.1,9-2
	c0.89,0.36,1.63,1,3,1c1.38,0,2.26-0.63,3-1c2.87-1.42,4.87,0.59,11,1c3.76,0.25,5.95-0.31,6,0c0.07,0.42-3.8,1.75-8.1,2.27
	C77.18,123.96,76.49,122.52,71,123z"/>
</svg>
