<?xml version="1.0" encoding="utf-8"?>
<!-- Generator: Adobe Illustrator 27.4.1, SVG Export Plug-In . SVG Version: 6.00 Build 0)  -->
<svg version="1.1" id="Layer_1" xmlns="http://www.w3.org/2000/svg" xmlns:xlink="http://www.w3.org/1999/xlink" x="0px" y="0px"
	 viewBox="0 0 147.5 151" style="enable-background:new 0 0 147.5 151;" xml:space="preserve">
<style type="text/css">
	.st0{fill:#EFEFD9;}
	.st1{fill:#E3D2BB;}
	.st2{opacity:0.58;fill:#FFFFFF;enable-background:new    ;}
	.st3{fill:#E8E5CD;}
</style>
<g>
	<g>
		<path class="st0" d="M68.8,135.3c-18,1-32.3,12.7-48.4,9.4c-7.3-1.5-8.5-4.7-8.7-5.4c-1.3-4.3,3.7-9.4,2.5-10.7
			c-1.3-1.4-7.1,4.1-8.7,2.7c-2.2-2,7.9-13,5-22.8c-2-6.7-8.1-6-9.9-12.1C-2.8,85,14.3,69.6,13,68.2c-0.9-1-8.3,6.8-9.9,5.4
			c-2.2-1.9,7.8-19,6.2-20.1c-0.9-0.7-4.2,4.9-6.2,4c-2.3-1-3.2-11.1,1.2-17.5c6.4-9.1,18.6-2.9,26.1-12.1c5-6.1,1.3-11.1,5-17.5
			C46.5-8.9,100,4.5,99.9,7.8c0,1-4.8,0.9-5,2.7c-0.4,3.6,19,7.9,18.6,10.7c-0.3,1.9-8.6,1.5-8.7,2.7c-0.1,1.4,12,0.8,22.3,6.7
			c15.3,8.7,22.1,28.8,19.9,30.9c-1.8,1.6-9.7-6.9-11.2-5.4c-2.2,2.3,13.9,22.4,11.2,25.5c-1.7,1.9-9-4.8-11.2-2.7
			c-2.9,2.8,8.4,15.6,6.2,32.2c-0.4,3.1-0.9,6.9-3.7,9.4c-4.9,4.3-11.1-0.8-16.1,2.7c-6.9,4.8-2,16-7.4,21.5
			C107,152.5,92.7,134,68.8,135.3z"/>
		<path class="st1" d="M34.5,105.3c5.1-2.7,4.8-22.2-2.5-25.5c-2.5-1.1-5.5-0.3-7.5,1.3c-4.6,4.1-3.8,14.5,1.2,20.1
			C27.5,103.3,31.7,106.8,34.5,105.3z"/>
		<path class="st1" d="M104.8,105.8c-5.1-2.7-4.8-22.2,2.5-25.5c2.5-1.1,5.6-0.3,7.4,1.3c4.6,4.1,3.8,14.5-1.2,20.1
			C111.8,103.7,107.6,107.2,104.8,105.8z"/>
		<path class="st1" d="M32.8,97.7c1.5,12.3,4.8,20.3,7.5,25.5c3.5,6.8,7.9,15.3,17.4,20.1c1.6,0.8,10.4,5.1,19.9,2.7
			c20.6-5.2,27.9-37.3,29.8-45.6c3.7-16.1,9.7-42.6-6.2-59.1c-15.7-16.2-45-14.5-59.6,1.3C27.9,57.4,30.7,80.4,32.8,97.7z"/>
		<path class="st0" d="M109.8,57.4c-3.8,4.4-21.2-17.9-39.7-14.8c-24.9,4.3-32.7,51.6-38.5,49.7c-5-1.6-7.1-38.7,13.7-56.4
			c10.3-8.8,22.2-9.3,25.4-9.4c4.1-0.1,20.5,0.1,31.7,13.4C107,45.5,112,54.8,109.8,57.4z"/>
		<path class="st2" d="M115.8,76.4c0.1-0.9,0.2-1.3,0-1.7c-0.4-0.6-1.3-0.6-1.6-0.6c-2.3,0-4.6-0.7-6.8-0.6c-4.7,0.3-3.5-0.3-10.5,0
			c-2.3,0.1-4.7,0.2-7.9,0.6c-1.7,0.2-3.4,0.4-10,1.7c-8.8,1.6-8.3,1.6-9,1.7c-4.7,0.1-5.3-1.3-13.2-2.8c-4.4-0.8-7.9-1-10-1.1
			c-5.2-0.3-4.1,0.2-10.5,0c-3-0.1-6,0.8-9,0.6c-0.4,0-1.6-0.2-2.1,0.6c-0.3,0.4,0,0.8,0,2.2c0,1.4-0.3,1.9,0,2.2s0.8-0.1,1.6,0
			c0,0,0.8,0.1,1.6,1.1c1.7,2,0.4,12.5,3.7,17.7c2.9,4.6,9.6,5.2,13.7,5.5c5.4,0.5,9.1-0.8,10-1.1c2.3-0.9,4-1.5,5.6-3.3
			c2.5-2.7,1.7-4.9,5-10.7c1.6-2.9,2.6-3.8,3.7-4c1.3-0.3,3,0.1,4.1,1.5c0.9,1.1,1,2.3,1.1,2.8c0,0,0.6,2.3,2.6,6.6
			c2.6,5.3,8.4,7.5,9,7.7c2.8,1,5.1,0.8,9,0.6c5.3-0.4,8.1-0.6,10.5-2.8c3.9-3.4,4.6-9.6,4.7-11c0.2-2,0.7-8.5,2.1-9.4
			c0.6-0.4,1.1-0.6,1.1-0.6c1-0.4,1.3-0.2,1.6-0.6C116.3,78.7,115.7,78.1,115.8,76.4z M62.6,89.1c-0.8,3.3-1.9,7.2-5.3,9.9
			c-2.4,1.9-4.9,2.3-7.4,2.8c-3.5,0.6-6.2,0.2-7.4,0c-2.5-0.4-4.7-0.9-6.8-2.8c-1.9-1.7-2.7-3.7-3.2-5c-1.1-3-1.1-5.5-1-7.7
			c0.1-4,0.2-6.8,2.1-8.8c1.4-1.4,3.1-1.7,6.3-2.2c4.6-0.7,8.3-0.2,10,0c7.2,1,11.5,1.7,13.2,5C64.3,82.5,63.7,85,62.6,89.1z
			 M108.9,94c-0.5,1.3-1.3,3.3-3.2,5c-2.1,1.9-4.4,2.3-6.8,2.8c-1.2,0.2-3.9,0.6-7.4,0c-2.5-0.4-5-0.9-7.4-2.8
			c-3.4-2.7-4.4-6.6-5.3-9.9c-1.1-4.1-1.7-6.5-0.5-8.8c1.7-3.3,5.9-3.9,13.2-5c1.7-0.2,5.4-0.7,10,0c3.2,0.5,4.9,0.8,6.3,2.2
			c1.9,2,2,4.9,2.1,8.8C110.1,88.5,110.1,91,108.9,94z"/>
	</g>
	<path class="st3" d="M61.9,74.1c-1.5,0.3-6.8-4.8-13.5-6.1c-9-1.7-13.8,5.1-15.8,4.2c-1.7-0.7-0.9-6.8,7.2-7.6
		c4-0.4,8.3,0.6,9.4,0.9c1.5,0.4,7.3,1.9,10.7,5.1C61.3,71.9,62.8,73.8,61.9,74.1z"/>
	<path class="st3" d="M77.4,68.4c1.5,0.3,6.8-4.8,13.5-6c9-1.7,13.8,5.1,15.8,4.2c1.7-0.7,0.9-6.8-7.2-7.6c-4-0.4-8.3,0.6-9.4,0.9
		c-1.5,0.4-7.3,1.9-10.7,5.1C77.9,66.2,76.5,68.2,77.4,68.4z"/>
</g>
</svg>
