<?xml version="1.0" encoding="utf-8"?>
<!-- Generator: Adobe Illustrator 27.4.1, SVG Export Plug-In . SVG Version: 6.00 Build 0)  -->
<svg version="1.1" id="Layer_1" xmlns="http://www.w3.org/2000/svg" xmlns:xlink="http://www.w3.org/1999/xlink" x="0px" y="0px"
	 viewBox="0 0 115.4 127.2" style="enable-background:new 0 0 115.4 127.2;" xml:space="preserve">
<style type="text/css">
	.st0{fill:#CDAB8E;}
	.st1{fill:#6B4224;}
	.st2{opacity:0.69;fill:#6B4224;}
	.st3{opacity:0.63;}
</style>
<path class="st0" d="M15.5,85.3c6.2-2.8,5.8-22.3-3-25.7c-3-1.1-6.6-0.3-8.9,1.4c-5.6,4.1-4.5,14.6,1.5,20.3
	C7.2,83.2,12.2,86.8,15.5,85.3z"/>
<path class="st0" d="M99.8,85.7c-6.2-2.8-5.8-22.3,3-25.7c3-1.1,6.7-0.3,8.9,1.3c5.6,4.1,4.5,14.6-1.5,20.3
	C108.1,83.6,103.1,87.2,99.8,85.7z"/>
<path class="st0" d="M13.6,77.6c2.6,12.6,8.3,21.8,10.8,25.8c5.4,8.6,9.8,15.7,19,20.1c2.9,1.4,12.6,5.5,23.8,2.7
	c13.4-3.4,20.4-14.6,26.2-23.8c5.9-9.4,8.4-18,9.4-22.1c2.7-10.9,11.8-42.7-7.4-59.4C76.5,4.5,41.5,6.2,24,22.2
	C4.8,39.7,11.9,69.8,13.6,77.6z"/>
<ellipse class="st0" cx="59.2" cy="98.2" rx="14.1" ry="4.7"/>
<path class="st1" d="M67.4,58.2c1.5,0.3,6.8-4.8,13.5-6c9-1.7,13.8,5.1,15.8,4.2c1.7-0.7,0.9-6.8-7.2-7.6c-4-0.4-8.3,0.6-9.4,0.9
	c-1.5,0.4-7.3,1.9-10.7,5.1C67.9,56,66.5,58,67.4,58.2z"/>
<path class="st1" d="M53.1,58.2c-1.5,0.3-6.8-4.8-13.5-6.1c-9-1.7-13.8,5.1-15.8,4.2c-1.7-0.7-0.9-6.8,7.2-7.6
	c4-0.4,8.3,0.6,9.4,0.9c1.5,0.4,7.3,1.9,10.7,5.1C52.6,56,54,58,53.1,58.2z"/>
<path class="st2" d="M11,59.2c0.8,7.9,3.7,16.4,5.5,16.2c2.1-0.3-1.4-13,5.7-26.2c2.9-5.3,4.4-5,11.4-14
	c5.8-7.5,15.1-19.5,12.7-22.3c-2.5-3-19.3,3-27.9,15.5c-5.7,8.3-7,17.8-7.3,20.5C10.7,51.7,10.6,55.2,11,59.2z"/>
<path class="st1" d="M29.5,22.6c0.3,1,1.2,3.3,9.3,8.2c7.6,4.6,16.2,9.8,29.1,11.3c7.2,0.8,15.3,1.8,23.7-1.9
	c20.3-8.9,26.2-37.5,22.7-39.7C112-1,102.8,9.2,99.8,6.9c-1.6-1.3-0.5-5.3-2.2-5.9c-0.9-0.3-1.9,0.6-2.3,0.9C91.8,4.7,87,5.3,83,7.2
	c-9.3,4.2-23.4-10.7-37.4-6.8C35.4,3.2,27.4,15.2,29.5,22.6z"/>
<g class="st3">
	<path class="st1" d="M107.2,55.1c0,6.1-0.8,13-2.2,13.1c-1.7,0.1-1.1-10.4-8.2-19.8c-6-8-11.1-6.4-17.7-14.4
		c-6.5-7.9-10.5-20-7-23.1c4.1-3.7,19.8,3.7,27.9,15.5C107.1,36.4,107.1,47.6,107.2,55.1z"/>
</g>
</svg>
