<?xml version="1.0" encoding="utf-8"?>
<!-- Generator: Adobe Illustrator 27.4.1, SVG Export Plug-In . SVG Version: 6.00 Build 0)  -->
<svg version="1.1" id="Layer_1" xmlns="http://www.w3.org/2000/svg" xmlns:xlink="http://www.w3.org/1999/xlink" x="0px" y="0px"
	 viewBox="0 0 172.5 170" style="enable-background:new 0 0 172.5 170;" xml:space="preserve">
<style type="text/css">
	.st0{fill:#6B4224;}
	.st1{fill:#E1B79D;}
	.st2{fill:#603813;}
	.st3{fill:#653C1E;}
</style>
<g>
	<g>
		<path class="st0" d="M55.8,5.09c-2.1,1.59-3.8,3.96-5.76,6.65c-3.2,4.37-3.73,6.79-9.84,12.64c-8.36,8.01-16.9,14.14-16.9,14.14
			c-5.02,3.6-9.42,6.27-10.73,11.49c-0.25,1-0.37,2.03,0.33,7.79c1.37,11.24,2.51,12.92,2.6,18c0.08,4.24,0.17,9.19-2.6,14.14
			c-3.7,6.61-8.91,6.78-11.7,14.14c-1.19,3.14-1.25,5.79-1.3,7.71c-0.22,9.2,4.17,16.98,5.2,16.71c0.61-0.16-0.2-3.09,0-10.28
			c0.05-1.86,0.28-10.19,1.3-10.28c1.65-0.15-0.09,21.68,13,35.99c0,0,6.48,7.08,18.2,10.28c1.66,0.45,4.47,1.08,5.2,0
			c0.6-0.88-0.55-2.37-2.6-6.43c-2.02-3.99-3.03-5.99-2.6-6.43c1.38-1.39,13.36,2.72,16.9,11.57c3.19,7.97-2.53,14.77,0,16.71
			c4.86,3.72,25.19-21.98,39.01-16.71c5.48,2.09,5.52,7.36,10.4,7.71c9.12,0.66,13.47-17.45,22.11-16.71
			c5.35,0.45,9.96,7.92,13,12.85c3.62,5.86,4.49,10.39,6.5,10.28c1.87-0.1,3.55-4.15,3.9-7.71c0.77-7.85-5.19-10.34-6.5-18
			c-1.11-6.45,1.92-11.68,7.8-21.85c5.98-10.33,7.77-9,13-18c3.53-6.07,11.63-19.97,6.5-30.85c-1.32-2.81-2.03-2.23-5.2-6.43
			c-9.35-12.37-5.03-19.79-13-32.14c-2.35-3.64-5.9-7.14-13-14.14c-6.13-6.04-9.89-8.92-11.7-10.28c-6.23-4.68-9.35-7.02-13-7.71
			c-8.78-1.67-10.92,5.71-22.11,6.43C84.32,6.88,84.07,3.3,70.1,2.52C62.06,2.07,58.48,3.06,55.8,5.09z"/>
		<path class="st1" d="M50.12,95.62C55.5,93,55.19,74.4,47.52,71.2c-2.6-1.09-5.81-0.31-7.8,1.29c-4.85,3.9-3.93,13.89,1.3,19.28
			C42.83,93.63,47.2,97.04,50.12,95.62z"/>
		<path class="st1" d="M123.81,96.01c-5.38-2.62-5.07-21.21,2.6-24.42c2.6-1.09,5.81-0.31,7.8,1.29c4.85,3.9,3.93,13.89-1.3,19.28
			C131.1,94.02,126.73,97.43,123.81,96.01z"/>
		<path class="st1" d="M48.39,88.3c1.58,11.77,5.02,19.48,7.8,24.42c3.65,6.48,8.26,14.68,18.2,19.28
			c1.67,0.77,10.86,4.85,20.81,2.57c21.54-4.94,29.22-35.75,31.21-43.7c3.85-15.42,10.18-40.8-6.5-56.56
			c-16.46-15.56-47.08-13.93-62.42,1.29C43.23,49.75,46.17,71.74,48.39,88.3z"/>
		<path class="st2" d="M48,78.36c0.27-0.09,4.51,7.22,13,21.85c4.43,7.63,6.91,11.98,9.1,11.57c3.11-0.59,0.78-9.82,6.5-15.42
			c6.02-5.89,18.88-5.72,24.71,0c5.42,5.32,2.84,13.57,5.2,14.14c5.34,1.29,18.93-40.74,22.11-39.85c1.68,0.47-0.4,12.7-1.3,18
			c-1.18,6.96-2.15,12.49-5.2,19.28c-1.11,2.48-3.39,7.45-7.8,12.85c-4.22,5.15-11.3,13.81-22.11,15.42
			c-8.52,1.27-15.53-2.41-18.2-3.86C49.71,119.17,45.62,79.21,48,78.36z"/>
		<path class="st3" d="M91.42,27.47c-2.57-0.21-3.02-1.08-5.23-1.39c-3.84-0.53-7.04,1.45-9.16,2.78
			c-2.57,1.6-8.62,6.09-13.09,18.05c-3.54,9.47-1.23,10.61-3.93,19.43c-4.11,13.46-14.7,27.87-26.17,34.7
			c-1.44,0.86-3.36,1.88-5.23,4.16c-4.19,5.13-5.7,13.67-3.93,20.82c0.76,3.04,1.92,5.09,1.31,5.55c-0.88,0.66-4.36-2.74-6.54-5.55
			c-2-2.57-4.74-6.11-5.23-11.11c-0.42-4.29,0.99-7.88,0-8.33c-0.78-0.35-1.96,1.73-2.62,1.39c-1.15-0.6,1.1-7.69,1.31-8.33
			c1.67-5.19,3.11-7.61,3.93-9.72c1.81-4.69-0.27-13.9-1.07-17.12c-0.14-0.58-0.16-0.61-0.24-0.93c-2.42-9.88,3.57-20.77,4.37-22.18
			c6.7-11.86,13.26-8.72,25-22c9.83-11.12,10.88-19.72,19-21c2.89-0.46,2.74,0.63,12,2c5.78,0.86,12.22,1.81,19,1
			c9.9-1.18,9.37-4.78,16-5c8.42-0.28,15.28,5.81,29,18c5.98,5.31,9.01,8.05,11,12c4.14,8.23,0.66,11.6,4,21
			c4.03,11.33,10.73,11.07,12,20c0.84,5.89-1.47,10.52-6.1,19.78c-5.2,10.4-11.46,17.51-14.4,20.82c-6.4,7.22-14.4,15.27-14.4,15.27
			c-6.08,6.12-10.24,9.92-11.78,16.66c-0.5,2.2-1.15,5.18,0,8.33c2.78,7.64,13.34,8.6,13.09,9.72c-0.26,1.15-11.81,2.09-18.32-5.55
			c-1.65-1.94-3.09-4.57-3.93-8.33c-1.97-8.89,1.08-16.81,7.85-31.93c10.19-22.74,14.49-29.76,13.09-38.87
			c-1.04-6.72-3.93-12.49-3.93-12.49c-2.17-4.34-3.47-4.94-6.54-9.72c-4.28-6.65-6.5-12.86-7.85-16.66
			c-3.39-9.48-2.96-13.16-6.54-15.27c-3.06-1.81-7.32-1.44-7.85-1.39C95.93,26.4,94.78,27.74,91.42,27.47z"/>
		<ellipse class="st1" cx="88.96" cy="106.64" rx="12.35" ry="3.86"/>
	</g>
	<path class="st0" d="M94.6,63.79c1.51,0.34,6.81-4.82,13.52-6.05c9.03-1.66,13.77,5.07,15.75,4.23c1.7-0.72,0.93-6.76-7.2-7.61
		c-4.04-0.42-8.28,0.61-9.44,0.9c-1.46,0.37-7.27,1.93-10.7,5.08C95.11,61.64,93.69,63.59,94.6,63.79z"/>
	<path class="st0" d="M83.32,64.79c-1.51,0.34-6.81-4.82-13.52-6.05c-9.03-1.66-13.77,5.07-15.75,4.23c-1.7-0.72-0.93-6.76,7.2-7.61
		c4.04-0.42,8.28,0.61,9.44,0.9c1.46,0.37,7.27,1.93,10.7,5.08C82.8,62.64,84.22,64.59,83.32,64.79z"/>
</g>
</svg>
