<?xml version="1.0" encoding="utf-8"?>
<!-- Generator: Adobe Illustrator 27.4.1, SVG Export Plug-In . SVG Version: 6.00 Build 0)  -->
<svg version="1.1" id="Layer_1" xmlns="http://www.w3.org/2000/svg" xmlns:xlink="http://www.w3.org/1999/xlink" x="0px" y="0px"
	 viewBox="0 0 115 118" style="enable-background:new 0 0 115 118;" xml:space="preserve">
<style type="text/css">
	.st0{fill:#CDAB8E;}
	.st1{opacity:0.14;}
	.st2{fill:#6B4224;}
	.st3{fill:#603813;}
</style>
<path class="st0" d="M15.4,76.3c6.2-2.8,5.8-22.3-3-25.7c-3-1.1-6.6-0.3-8.9,1.4C-2.1,56.1-1,66.6,5,72.3
	C7.1,74.2,12,77.8,15.4,76.3z"/>
<path class="st0" d="M99.6,76.7c-6.2-2.8-5.8-22.3,3-25.7c3-1.1,6.7-0.3,8.9,1.3c5.6,4.1,4.5,14.6-1.5,20.3
	C108,74.6,103,78.2,99.6,76.7z"/>
<path class="st0" d="M13.4,68.6c2.6,12.6,8.3,21.8,10.8,25.8c5.4,8.6,9.8,15.7,19,20.1c2.9,1.4,12.6,5.6,23.8,2.7
	c13.4-3.4,20.4-14.6,26.2-23.8c5.9-9.4,8.4-18,9.4-22.1c2.7-10.9,11.8-42.7-7.4-59.4C76.3-4.4,41.3-2.7,23.8,13.2
	C4.7,30.7,11.8,60.9,13.4,68.6z"/>
<ellipse class="st0" cx="59" cy="89.3" rx="14.1" ry="4.7"/>
<path class="st1" d="M13.4,68.6c2.3-1.8,9.1,11.3,25.4,16.6c3.2,1,7,1.9,8.2,4.9c1.7,4.5-4.7,8.4-3.6,12.3
	c2.1,7.5,30.4,8.8,32.9,1.8c1.7-4.8-9.2-11-6.9-16.1c1.2-2.8,5.1-2.4,10.7-4.1c14.9-4.6,21.4-18,23.5-16.5c1.5,1-1.7,8.2-4.6,14.6
	c-0.7,1.7-2.7,6.1-5,9.9c-5.4,9-13,21.8-27.1,25.3c-17.6,4.3-32.6-9.1-33.4-9.7c-4.2-3.9-6.9-8.8-12.1-18.7
	C17.4,81.3,11.3,70.2,13.4,68.6z"/>
<path class="st2" d="M67.2,49.2c1.5,0.3,6.8-4.8,13.5-6c9-1.7,13.8,5.1,15.8,4.2c1.7-0.7,0.9-6.8-7.2-7.6c-4-0.4-8.3,0.6-9.4,0.9
	c-1.5,0.4-7.3,1.9-10.7,5.1C67.8,47.1,66.3,49,67.2,49.2z"/>
<path class="st2" d="M53,49.2c-1.5,0.3-6.8-4.8-13.5-6c-9-1.7-13.8,5.1-15.8,4.2c-1.7-0.7-0.9-6.8,7.2-7.6c4-0.4,8.3,0.6,9.4,0.9
	c1.5,0.4,7.3,1.9,10.7,5.1C52.5,47.1,53.9,49,53,49.2z"/>
<path class="st3" d="M53.2,86.1c-6.9,0.6-11,5.9-11.2,6.2c0,0-0.1,0.2-0.2,0.3c-4.6,6.4-2.1,14-1.5,15.6c1,2.9,1.7,5,4,6.8
	c2.5,1.9,5.1,2.3,9.5,2.9c1.4,0.2,6.7,0.9,13.5-0.3c3-0.5,4.6-0.8,6-1.7c3.4-2.1,4.2-5.6,5-9.3c1.2-5.8,2.1-9.8-0.6-13.9
	c-2.3-3.6-7.3-7.3-12.8-7.2c-4.2,0.1-7.8,2.5-7.6,3.2c0.3,0.8,4.3-0.8,8.6,0.9c3.5,1.4,5.1,4.3,5.9,5.7c1.1,1.9,3.2,5.7,1.5,8
	c-1.8,2.4-6.7,2.2-7.6,0.7c-0.4-0.7,0.6-1.4,0-2.3c-1.2-1.8-4.8-1.8-5.8-1.8c-1,0-5.5,0-6.1,1.8c-0.3,1.1,0.9,1.8,0.5,2.6
	c-0.7,1.8-7.2,2.8-9.5-0.3c-2.2-3.1,1.2-8.1,1.7-8.7c1.9-2.5,4.4-3.8,6-4.6c4.9-2.4,8.8-2.2,8.8-2.9C61.2,87,57.2,85.8,53.2,86.1z"
	/>
</svg>
