<?xml version="1.0" encoding="utf-8"?>
<!-- Generator: Adobe Illustrator 27.4.1, SVG Export Plug-In . SVG Version: 6.00 Build 0)  -->
<svg version="1.1" id="Layer_1" xmlns="http://www.w3.org/2000/svg" xmlns:xlink="http://www.w3.org/1999/xlink" x="0px" y="0px"
	 viewBox="0 0 115 118" style="enable-background:new 0 0 115 118;" xml:space="preserve">
<style type="text/css">
	.st0{fill:#CDAB8E;}
	.st1{fill:#603813;}
	.st2{fill:#6B4224;}
</style>
<g>
	<g>
		<path class="st0" d="M15.38,76.31c6.15-2.75,5.8-22.29-2.97-25.66C9.44,49.51,5.76,50.33,3.49,52C-2.06,56.1-1,66.6,4.98,72.26
			C7.05,74.22,12.04,77.81,15.38,76.31z"/>
		<path class="st0" d="M99.64,76.72c-6.15-2.75-5.8-22.29,2.97-25.66c2.97-1.14,6.65-0.33,8.92,1.35c5.55,4.09,4.49,14.6-1.49,20.26
			C107.97,74.63,102.98,78.22,99.64,76.72z"/>
		<path class="st0" d="M13.41,68.62c2.64,12.64,8.26,21.81,10.76,25.8c5.37,8.59,9.81,15.69,18.98,20.11
			c2.94,1.42,12.56,5.55,23.79,2.7c13.42-3.4,20.44-14.58,26.23-23.82c5.9-9.41,8.41-17.99,9.45-22.1
			c2.74-10.92,11.79-42.72-7.43-59.42C76.35-4.45,41.34-2.74,23.81,13.25C4.69,30.69,11.79,60.87,13.41,68.62z"/>
		<ellipse class="st0" cx="59.04" cy="89.26" rx="14.12" ry="4.73"/>
		<path class="st1" d="M53.16,86.12c-6.88,0.64-11.04,5.88-11.25,6.15c-0.03,0.04-0.12,0.15-0.23,0.3
			c-4.61,6.37-2.06,14.03-1.52,15.63c0.97,2.9,1.67,5,4,6.79c2.45,1.89,5.14,2.27,9.47,2.88c1.41,0.2,6.74,0.88,13.53-0.33
			c3.03-0.54,4.55-0.81,6-1.7c3.43-2.1,4.22-5.61,5-9.34c1.21-5.79,2.07-9.78-0.63-13.93c-2.34-3.61-7.27-7.33-12.8-7.15
			c-4.21,0.14-7.82,2.51-7.57,3.24c0.26,0.75,4.33-0.8,8.56,0.95c3.49,1.43,5.11,4.28,5.95,5.73c1.1,1.91,3.2,5.67,1.49,8.03
			c-1.77,2.43-6.74,2.23-7.58,0.7c-0.4-0.73,0.58-1.45,0-2.3c-1.21-1.79-4.84-1.83-5.8-1.84c-1.04-0.01-5.52-0.04-6.14,1.84
			c-0.35,1.06,0.86,1.76,0.53,2.64c-0.67,1.81-7.25,2.75-9.49-0.34c-2.2-3.05,1.21-8.06,1.73-8.73c1.9-2.48,4.4-3.81,5.95-4.59
			c4.87-2.43,8.8-2.15,8.82-2.94C61.18,87.02,57.16,85.75,53.16,86.12z"/>
	</g>
	<path class="st2" d="M67.24,49.22c1.51,0.34,6.81-4.82,13.52-6.05c9.03-1.66,13.77,5.07,15.75,4.23c1.7-0.72,0.93-6.76-7.2-7.61
		c-4.04-0.42-8.28,0.61-9.44,0.9c-1.46,0.37-7.27,1.93-10.7,5.08C67.76,47.07,66.34,49.02,67.24,49.22z"/>
	<path class="st2" d="M52.97,49.22c-1.51,0.34-6.81-4.82-13.52-6.05c-9.03-1.66-13.77,5.07-15.75,4.23c-1.7-0.72-0.93-6.76,7.2-7.61
		c4.04-0.42,8.28,0.61,9.44,0.9c1.46,0.37,7.27,1.93,10.7,5.08C52.45,47.07,53.87,49.02,52.97,49.22z"/>
</g>
</svg>
